PathFileType	4	(X/Y/Z)	/home/abdul/Desktop/myosuite/custom_workspace/IK/output/S14_12_3.trc
DataRate	CameraRate	NumFrames	NumMarkers	Units	OrigDataRate	OrigDataStartFrame	OrigNumFrames
200.0	200.0	22	3	mm	200.0	1595	2126
Frame#	Time	V_Shoulder			V_Elbow			V_Wrist		
		X1	Y1	Z1	X2	Y2	Z2	X3	Y3	Z3

1595	7.97	-156.88833246131267	665.031187912819	316.7910338667716	-169.26843204268755	449.8461801448781	40.27799283255059	-57.60751409308745	230.79009616830243	66.48311470969101
1596	7.975	-156.85900812632008	665.0287626040518	316.8078365974907	-169.26509794076262	449.84727297563995	40.298765658803916	-57.67707653982228	230.74497453258337	66.18884367352484
1597	7.98	-156.83000400140497	665.0268930245871	316.8243463620664	-169.2623840618302	449.8499945444488	40.31812235021318	-57.747810181773744	230.70177907089487	65.89055140702808
1598	7.985	-156.8013209033147	665.0255646486768	316.84056820246747	-169.26031017341091	449.85436635072165	40.336035659530836	-57.81976068904488	230.6605121304314	65.58811205611674
1599	7.99	-156.77295946934308	665.024763201323	316.8565075920598	-169.25889528957228	449.8604053825255	40.352484378668635	-57.89297128638474	230.62117316634072	65.2814242978275
1600	7.995	-156.74492015506215	665.0244746671468	316.8721704266777	-169.2581575281273	449.86812389319977	40.36745353625429	-57.967482536221794	230.58375844659676	64.97041182119095
1601	8.0	-156.71720323206745	665.0246852983631	316.887563014966	-169.25811397249888	449.8775291972484	40.38093457184795	-58.0433321291064	230.54826077434595	64.65502371245026
1602	8.005	-156.68980878574317	665.0253816218825	316.9026920679966	-169.25878053890455	449.8886234867607	40.39292548558276	-58.12055468259144	230.514669229495	64.33523474238599
1603	8.01	-156.66273671305385	665.0265504455585	316.91756468816715	-169.26017184949484	449.90140366953426	40.40343096209766	-58.19918154955548	230.48296893121784	64.01104555389979
1604	8.015	-156.63598672037054	665.0281788636076	316.9321883573892	-169.26230111205476	449.91586122998115	40.412462467741996	-58.279240636944245	230.45314082295718	63.68248274841493
1605	8.02	-156.6095583213408	665.0302542612286	316.9465709245722	-169.26518000684942	449.9319821137965	40.42003832014997	-58.36075623587146	230.4251614813851	63.34959887006768
1606	8.025	-156.58345083481208	665.0327643184532	316.96072059241567	-169.26881858116687	449.9497466372657	40.42618372940814	-58.443748863981234	230.3990029506656	63.01247228708951
1607	8.03	-156.55766338281921	665.0356970132628	316.9746459035189	-169.27322515207624	449.9691294219725	40.430930810170196	-58.52823512093008	230.37463260323295	62.67120697021308
1608	8.035	-156.53219488864897	665.0390406240061	316.988355725821	-169.27840621788482	449.9900993555549	40.43431856420992	-58.61422755779826	230.35201302816088	62.32593216837533
1609	8.04	-156.50704407499282	665.0427837311591	317.0018592373862	-169.28436637874	450.01261957903455	40.43639283304401	-58.70173456118677	230.33110194805363	61.97680198243464
1610	8.045	-156.48220946220195	665.0469152184678	317.01516591055014	-169.29110826678132	450.03664750111955	40.437206220401826	-58.790760252699286	230.31185216523684	61.623994838066096
1611	8.05	-156.45768936665849	665.0514242735175	317.02828549544364	-169.29863248620583	450.06213483975034	40.43681798446713	-58.88130440444691	230.29421153786973	61.26771285944616
1612	8.055	-156.43348189927735	665.0563003877737	317.04122800291566	-169.30693756356612	450.0890276910314	40.43529389996769	-58.97336237114894	230.27812298643744	60.90818114578405
1613	8.06	-156.40958496415345	665.0615333561426	317.05400368687555	-169.31601990857385	450.1172666255511	40.43270609034056	-59.06692503933395	230.26352453091638	60.54564695320021
1614	8.065	-156.3859962573704	665.0671132760953	317.0666230260781	-169.32587378563545	450.14678681196403	40.42913283035461	-59.16197879407458	230.25034935873686	60.1803787848894
1615	8.07	-156.3627132659856	665.0730305464102	317.0790967053783	-169.33649129629669	450.1775181675681	40.42465831972391	-59.258505503613954	230.23852592349476	59.8126653929357
1616	8.075	-156.33973326720832	665.0792758655788	317.0914355964814	-169.34786237272522	450.20938553547717	40.41937242839839	-59.35648252216571	230.2279780741946	59.442814695567115
